<?xml version="1.0" standalone="no"?>
 <!DOCTYPE svg PUBLIC "-//W3C//DTD SVG 1.1//EN" 
 "http://www.w3.org/Graphics/SVG/1.1/DTD/svg11.dtd"> 
<svg
  xmlns:svg="http://www.w3.org/2000/svg"
  xmlns="http://www.w3.org/2000/svg"
  xmlns:xlink="http://www.w3.org/1999/xlink"
  version="1.1"
  width="21.000720cm" height="14.800580cm" viewBox="0 0 82680 58270">
<title>SVG Picture created as duco_co2.svg date 2024/02/04 16:18:11 </title>
  <desc>Picture generated by Eeschema-SVG </desc>
<g style="fill:#000000; fill-opacity:1.000000;stroke:#000000; stroke-opacity:1.000000;
stroke-linecap:round; stroke-linejoin:round;"
 transform="translate(0 0) scale(1 1)">
</g>
<g style="fill:#F5F4EF; fill-opacity:0.0; 
stroke:#F5F4EF; stroke-width:0.000000; stroke-opacity:1; 
stroke-linecap:round; stroke-linejoin:round;">
</g>
<g style="fill:#F5F4EF; fill-opacity:1.0; 
stroke:#F5F4EF; stroke-width:0.039370; stroke-opacity:1; 
stroke-linecap:round; stroke-linejoin:round;">
<rect x="0.000000" y="0.000000" width="82680.000000" height="58270.000000" rx="0.000000" />
</g>
<g style="fill:#840000; fill-opacity:1.0; 
stroke:#840000; stroke-width:0.039370; stroke-opacity:1; 
stroke-linecap:round; stroke-linejoin:round;">
</g>
<g style="fill:#840000; fill-opacity:1.0; 
stroke:#840000; stroke-width:60.000000; stroke-opacity:1; 
stroke-linecap:round; stroke-linejoin:round;">
</g>
<g style="fill:#840000; fill-opacity:0.0; 
stroke:#840000; stroke-width:60.000000; stroke-opacity:1; 
stroke-linecap:round; stroke-linejoin:round;">
<path d="M80711 56301
L80711 56301
" />
<g >
<path style="fill:#840000; fill-opacity:0.0; 
stroke:#840000; stroke-width:60.000000; stroke-opacity:1; 
stroke-linecap:round; stroke-linejoin:round;fill:none"
d="M 30000.000000,26500.000000
30000.000000,27000.000000
30500.000000,27000.000000
30000.000000,27500.000000
29500.000000,27000.000000
30000.000000,27000.000000
" /> 
</g>
<g style="fill:#006464; fill-opacity:0.0; 
stroke:#006464; stroke-width:60.000000; stroke-opacity:1; 
stroke-linecap:round; stroke-linejoin:round;">
<text x="31500.000000" y="27249.960630"
textLength="1583.818898" font-size="666.653543" lengthAdjust="spacingAndGlyphs"
text-anchor="middle" opacity="0">GND</text>
<g class="stroked-text"><desc>GND</desc>
<path d="M31119 26749
L31071 26726
L31000 26726
L30928 26749
L30880 26797
L30857 26845
L30833 26940
L30833 27011
L30857 27107
L30880 27154
L30928 27202
L31000 27226
L31047 27226
L31119 27202
L31142 27178
L31142 27011
L31047 27011
" />
<path d="M31357 27226
L31357 26726
L31642 27226
L31642 26726
" />
<path d="M31880 27226
L31880 26726
L32000 26726
L32071 26749
L32119 26797
L32142 26845
L32166 26940
L32166 27011
L32142 27107
L32119 27154
L32071 27202
L32000 27226
L31880 27226
" />
</g></g>
</g>
<g style="fill:#006464; fill-opacity:0.0; 
stroke:#006464; stroke-width:60.000000; stroke-opacity:1; 
stroke-linecap:round; stroke-linejoin:round;">
<g >
</g>
<g style="fill:#840000; fill-opacity:0.0; 
stroke:#840000; stroke-width:60.000000; stroke-opacity:1; 
stroke-linecap:round; stroke-linejoin:round;">
</g>
<g style="fill:#FFFFC2; fill-opacity:0.0; 
stroke:#FFFFC2; stroke-width:60.000000; stroke-opacity:1; 
stroke-linecap:round; stroke-linejoin:round;">
</g>
<g style="fill:#FFFFC2; fill-opacity:0.6; 
stroke:#FFFFC2; stroke-width:0.039370; stroke-opacity:1; 
stroke-linecap:round; stroke-linejoin:round;">
<rect x="34500.000000" y="22500.000000" width="1000.000000" height="8000.000000" rx="0.000000" />
</g>
<g style="fill:#840000; fill-opacity:0.6; 
stroke:#840000; stroke-width:0.039370; stroke-opacity:1; 
stroke-linecap:round; stroke-linejoin:round;">
</g>
<g style="fill:#840000; fill-opacity:0.0; 
stroke:#840000; stroke-width:100.000000; stroke-opacity:1; 
stroke-linecap:round; stroke-linejoin:round;">
<rect x="34500.000000" y="22500.000000" width="1000.000000" height="8000.000000" rx="0.000000" />
</g>
<g style="fill:#840000; fill-opacity:0.0; 
stroke:#840000; stroke-width:60.000000; stroke-opacity:1; 
stroke-linecap:round; stroke-linejoin:round;">
<rect x="34500.000000" y="22950.000000" width="500.000000" height="100.000000" rx="0.000000" />
<rect x="34500.000000" y="23950.000000" width="500.000000" height="100.000000" rx="0.000000" />
<rect x="34500.000000" y="24950.000000" width="500.000000" height="100.000000" rx="0.000000" />
<rect x="34500.000000" y="25950.000000" width="500.000000" height="100.000000" rx="0.000000" />
<rect x="34500.000000" y="26950.000000" width="500.000000" height="100.000000" rx="0.000000" />
<rect x="34500.000000" y="27950.000000" width="500.000000" height="100.000000" rx="0.000000" />
<rect x="34500.000000" y="28950.000000" width="500.000000" height="100.000000" rx="0.000000" />
<rect x="34500.000000" y="29950.000000" width="500.000000" height="100.000000" rx="0.000000" />
</g>
<g style="fill:#840000; fill-opacity:0.0; 
stroke:#840000; stroke-width:100.000000; stroke-opacity:1; 
stroke-linecap:round; stroke-linejoin:round;">
<rect x="34500.000000" y="22500.000000" width="1000.000000" height="8000.000000" rx="0.000000" />
</g>
<g style="fill:#840000; fill-opacity:0.0; 
stroke:#840000; stroke-width:60.000000; stroke-opacity:1; 
stroke-linecap:round; stroke-linejoin:round;">
<path d="M34500 30000
L33000 30000
" />
</g>
<g style="fill:#A90000; fill-opacity:0.0; 
stroke:#A90000; stroke-width:60.000000; stroke-opacity:1; 
stroke-linecap:round; stroke-linejoin:round;">
<text x="33750.000000" y="29900.000000"
textLength="536.181102" font-size="666.653543" lengthAdjust="spacingAndGlyphs"
text-anchor="middle" opacity="0">1</text>
<g class="stroked-text"><desc>1</desc>
<path d="M33892 29876
L33607 29876
" />
<path d="M33750 29876
L33750 29376
L33702 29447
L33654 29495
L33607 29519
" />
</g></g>
<g style="fill:#840000; fill-opacity:0.0; 
stroke:#840000; stroke-width:60.000000; stroke-opacity:1; 
stroke-linecap:round; stroke-linejoin:round;">
<path d="M34500 29000
L33000 29000
" />
</g>
<g style="fill:#A90000; fill-opacity:0.0; 
stroke:#A90000; stroke-width:60.000000; stroke-opacity:1; 
stroke-linecap:round; stroke-linejoin:round;">
<text x="33750.000000" y="28900.000000"
textLength="536.181102" font-size="666.653543" lengthAdjust="spacingAndGlyphs"
text-anchor="middle" opacity="0">2</text>
<g class="stroked-text"><desc>2</desc>
<path d="M33607 28423
L33630 28400
L33678 28376
L33797 28376
L33845 28400
L33869 28423
L33892 28471
L33892 28519
L33869 28590
L33583 28876
L33892 28876
" />
</g></g>
<g style="fill:#840000; fill-opacity:0.0; 
stroke:#840000; stroke-width:60.000000; stroke-opacity:1; 
stroke-linecap:round; stroke-linejoin:round;">
<path d="M34500 28000
L33000 28000
" />
</g>
<g style="fill:#A90000; fill-opacity:0.0; 
stroke:#A90000; stroke-width:60.000000; stroke-opacity:1; 
stroke-linecap:round; stroke-linejoin:round;">
<text x="33750.000000" y="27900.000000"
textLength="536.181102" font-size="666.653543" lengthAdjust="spacingAndGlyphs"
text-anchor="middle" opacity="0">3</text>
<g class="stroked-text"><desc>3</desc>
<path d="M33583 27376
L33892 27376
L33726 27566
L33797 27566
L33845 27590
L33869 27614
L33892 27661
L33892 27780
L33869 27828
L33845 27852
L33797 27876
L33654 27876
L33607 27852
L33583 27828
" />
</g></g>
<g style="fill:#840000; fill-opacity:0.0; 
stroke:#840000; stroke-width:60.000000; stroke-opacity:1; 
stroke-linecap:round; stroke-linejoin:round;">
<path d="M34500 27000
L33000 27000
" />
</g>
<g style="fill:#A90000; fill-opacity:0.0; 
stroke:#A90000; stroke-width:60.000000; stroke-opacity:1; 
stroke-linecap:round; stroke-linejoin:round;">
<text x="33750.000000" y="26900.000000"
textLength="536.181102" font-size="666.653543" lengthAdjust="spacingAndGlyphs"
text-anchor="middle" opacity="0">4</text>
<g class="stroked-text"><desc>4</desc>
<path d="M33845 26542
L33845 26876
" />
<path d="M33726 26352
L33607 26709
L33916 26709
" />
</g></g>
<g style="fill:#840000; fill-opacity:0.0; 
stroke:#840000; stroke-width:60.000000; stroke-opacity:1; 
stroke-linecap:round; stroke-linejoin:round;">
<path d="M34500 26000
L33000 26000
" />
</g>
<g style="fill:#A90000; fill-opacity:0.0; 
stroke:#A90000; stroke-width:60.000000; stroke-opacity:1; 
stroke-linecap:round; stroke-linejoin:round;">
<text x="33750.000000" y="25900.000000"
textLength="536.181102" font-size="666.653543" lengthAdjust="spacingAndGlyphs"
text-anchor="middle" opacity="0">5</text>
<g class="stroked-text"><desc>5</desc>
<path d="M33869 25376
L33630 25376
L33607 25614
L33630 25590
L33678 25566
L33797 25566
L33845 25590
L33869 25614
L33892 25661
L33892 25780
L33869 25828
L33845 25852
L33797 25876
L33678 25876
L33630 25852
L33607 25828
" />
</g></g>
<g style="fill:#840000; fill-opacity:0.0; 
stroke:#840000; stroke-width:60.000000; stroke-opacity:1; 
stroke-linecap:round; stroke-linejoin:round;">
<path d="M34500 25000
L33000 25000
" />
</g>
<g style="fill:#A90000; fill-opacity:0.0; 
stroke:#A90000; stroke-width:60.000000; stroke-opacity:1; 
stroke-linecap:round; stroke-linejoin:round;">
<text x="33750.000000" y="24900.000000"
textLength="536.181102" font-size="666.653543" lengthAdjust="spacingAndGlyphs"
text-anchor="middle" opacity="0">6</text>
<g class="stroked-text"><desc>6</desc>
<path d="M33845 24376
L33750 24376
L33702 24400
L33678 24423
L33630 24495
L33607 24590
L33607 24780
L33630 24828
L33654 24852
L33702 24876
L33797 24876
L33845 24852
L33869 24828
L33892 24780
L33892 24661
L33869 24614
L33845 24590
L33797 24566
L33702 24566
L33654 24590
L33630 24614
L33607 24661
" />
</g></g>
<g style="fill:#840000; fill-opacity:0.0; 
stroke:#840000; stroke-width:60.000000; stroke-opacity:1; 
stroke-linecap:round; stroke-linejoin:round;">
<path d="M34500 24000
L33000 24000
" />
</g>
<g style="fill:#A90000; fill-opacity:0.0; 
stroke:#A90000; stroke-width:60.000000; stroke-opacity:1; 
stroke-linecap:round; stroke-linejoin:round;">
<text x="33750.000000" y="23900.000000"
textLength="536.181102" font-size="666.653543" lengthAdjust="spacingAndGlyphs"
text-anchor="middle" opacity="0">7</text>
<g class="stroked-text"><desc>7</desc>
<path d="M33583 23376
L33916 23376
L33702 23876
" />
</g></g>
<g style="fill:#840000; fill-opacity:0.0; 
stroke:#840000; stroke-width:60.000000; stroke-opacity:1; 
stroke-linecap:round; stroke-linejoin:round;">
<path d="M34500 23000
L33000 23000
" />
</g>
<g style="fill:#A90000; fill-opacity:0.0; 
stroke:#A90000; stroke-width:60.000000; stroke-opacity:1; 
stroke-linecap:round; stroke-linejoin:round;">
<text x="33750.000000" y="22900.000000"
textLength="536.181102" font-size="666.653543" lengthAdjust="spacingAndGlyphs"
text-anchor="middle" opacity="0">8</text>
<g class="stroked-text"><desc>8</desc>
<path d="M33702 22590
L33654 22566
L33630 22542
L33607 22495
L33607 22471
L33630 22423
L33654 22400
L33702 22376
L33797 22376
L33845 22400
L33869 22423
L33892 22471
L33892 22495
L33869 22542
L33845 22566
L33797 22590
L33702 22590
L33654 22614
L33630 22638
L33607 22685
L33607 22780
L33630 22828
L33654 22852
L33702 22876
L33797 22876
L33845 22852
L33869 22828
L33892 22780
L33892 22685
L33869 22638
L33845 22614
L33797 22590
" />
</g></g>
<g style="fill:#006464; fill-opacity:0.0; 
stroke:#006464; stroke-width:60.000000; stroke-opacity:1; 
stroke-linecap:round; stroke-linejoin:round;">
<text x="35000.000000" y="20750.000000"
textLength="1012.362205" font-size="666.653543" lengthAdjust="spacingAndGlyphs"
text-anchor="middle" opacity="0">X1</text>
<g class="stroked-text"><desc>X1</desc>
<path d="M34595 20226
L34928 20726
" />
<path d="M34928 20226
L34595 20726
" />
<path d="M35380 20726
L35095 20726
" />
<path d="M35238 20726
L35238 20226
L35190 20297
L35142 20345
L35095 20369
" />
</g><text x="35000.000000" y="21750.000000"
textLength="6226.653543" font-size="666.653543" lengthAdjust="spacingAndGlyphs"
text-anchor="middle" opacity="0">S8B-PH-K-S 8</text>
<g class="stroked-text"><desc>S8B-PH-K-S 8</desc>
<path d="M32011 21702
L32083 21726
L32202 21726
L32250 21702
L32273 21678
L32297 21630
L32297 21583
L32273 21535
L32250 21511
L32202 21488
L32107 21464
L32059 21440
L32035 21416
L32011 21369
L32011 21321
L32035 21273
L32059 21250
L32107 21226
L32226 21226
L32297 21250
" />
<path d="M32583 21440
L32535 21416
L32511 21392
L32488 21345
L32488 21321
L32511 21273
L32535 21250
L32583 21226
L32678 21226
L32726 21250
L32750 21273
L32773 21321
L32773 21345
L32750 21392
L32726 21416
L32678 21440
L32583 21440
L32535 21464
L32511 21488
L32488 21535
L32488 21630
L32511 21678
L32535 21702
L32583 21726
L32678 21726
L32726 21702
L32750 21678
L32773 21630
L32773 21535
L32750 21488
L32726 21464
L32678 21440
" />
<path d="M33154 21464
L33226 21488
L33250 21511
L33273 21559
L33273 21630
L33250 21678
L33226 21702
L33178 21726
L32988 21726
L32988 21226
L33154 21226
L33202 21250
L33226 21273
L33250 21321
L33250 21369
L33226 21416
L33202 21440
L33154 21464
L32988 21464
" />
<path d="M33488 21535
L33869 21535
" />
<path d="M34107 21726
L34107 21226
L34297 21226
L34345 21250
L34369 21273
L34392 21321
L34392 21392
L34369 21440
L34345 21464
L34297 21488
L34107 21488
" />
<path d="M34607 21726
L34607 21226
" />
<path d="M34607 21464
L34892 21464
" />
<path d="M34892 21726
L34892 21226
" />
<path d="M35130 21535
L35511 21535
" />
<path d="M35750 21726
L35750 21226
" />
<path d="M36035 21726
L35821 21440
" />
<path d="M36035 21226
L35750 21511
" />
<path d="M36250 21535
L36630 21535
" />
<path d="M36845 21702
L36916 21726
L37035 21726
L37083 21702
L37107 21678
L37130 21630
L37130 21583
L37107 21535
L37083 21511
L37035 21488
L36940 21464
L36892 21440
L36869 21416
L36845 21369
L36845 21321
L36869 21273
L36892 21250
L36940 21226
L37059 21226
L37130 21250
" />
<path d="M37797 21440
L37750 21416
L37726 21392
L37702 21345
L37702 21321
L37726 21273
L37750 21250
L37797 21226
L37892 21226
L37940 21250
L37964 21273
L37988 21321
L37988 21345
L37964 21392
L37940 21416
L37892 21440
L37797 21440
L37750 21464
L37726 21488
L37702 21535
L37702 21630
L37726 21678
L37750 21702
L37797 21726
L37892 21726
L37940 21702
L37964 21678
L37988 21630
L37988 21535
L37964 21488
L37940 21464
L37892 21440
" />
</g></g>
</g>
<g style="fill:#006464; fill-opacity:0.0; 
stroke:#006464; stroke-width:60.000000; stroke-opacity:1; 
stroke-linecap:round; stroke-linejoin:round;">
<g >
</g>
<g style="fill:#840000; fill-opacity:0.0; 
stroke:#840000; stroke-width:60.000000; stroke-opacity:1; 
stroke-linecap:round; stroke-linejoin:round;">
<path style="fill:#840000; fill-opacity:0.0; 
stroke:#840000; stroke-width:60.000000; stroke-opacity:1; 
stroke-linecap:round; stroke-linejoin:round;fill:none"
d="M 26700.000000,22500.000000
27000.000000,22000.000000
" /> 
<path style="fill:#840000; fill-opacity:0.0; 
stroke:#840000; stroke-width:60.000000; stroke-opacity:1; 
stroke-linecap:round; stroke-linejoin:round;fill:none"
d="M 27000.000000,23000.000000
27000.000000,22000.000000
" /> 
<path style="fill:#840000; fill-opacity:0.0; 
stroke:#840000; stroke-width:60.000000; stroke-opacity:1; 
stroke-linecap:round; stroke-linejoin:round;fill:none"
d="M 27000.000000,22000.000000
27300.000000,22500.000000
" /> 
</g>
<g style="fill:#006464; fill-opacity:0.0; 
stroke:#006464; stroke-width:60.000000; stroke-opacity:1; 
stroke-linecap:round; stroke-linejoin:round;">
<text x="27000.000000" y="21249.960630"
textLength="1583.818898" font-size="666.653543" lengthAdjust="spacingAndGlyphs"
text-anchor="middle" opacity="0">+5V</text>
<g class="stroked-text"><desc>+5V</desc>
<path d="M26357 21035
L26738 21035
" />
<path d="M26547 21226
L26547 20845
" />
<path d="M27214 20726
L26976 20726
L26952 20964
L26976 20940
L27023 20916
L27142 20916
L27190 20940
L27214 20964
L27238 21011
L27238 21130
L27214 21178
L27190 21202
L27142 21226
L27023 21226
L26976 21202
L26952 21178
" />
<path d="M27380 20726
L27547 21226
L27714 20726
" />
</g></g>
</g>
<g style="fill:#006464; fill-opacity:0.0; 
stroke:#006464; stroke-width:60.000000; stroke-opacity:1; 
stroke-linecap:round; stroke-linejoin:round;">
<g >
</g>
<g style="fill:#840000; fill-opacity:0.0; 
stroke:#840000; stroke-width:60.000000; stroke-opacity:1; 
stroke-linecap:round; stroke-linejoin:round;">
<path style="fill:#840000; fill-opacity:0.0; 
stroke:#840000; stroke-width:60.000000; stroke-opacity:1; 
stroke-linecap:round; stroke-linejoin:round;fill:none"
d="M 26500.000000,30300.000000
26000.000000,30000.000000
" /> 
<path style="fill:#840000; fill-opacity:0.0; 
stroke:#840000; stroke-width:60.000000; stroke-opacity:1; 
stroke-linecap:round; stroke-linejoin:round;fill:none"
d="M 27000.000000,30000.000000
26000.000000,30000.000000
" /> 
<path style="fill:#840000; fill-opacity:0.0; 
stroke:#840000; stroke-width:60.000000; stroke-opacity:1; 
stroke-linecap:round; stroke-linejoin:round;fill:none"
d="M 26000.000000,30000.000000
26500.000000,29700.000000
" /> 
</g>
<g style="fill:#006464; fill-opacity:0.0; 
stroke:#006464; stroke-width:60.000000; stroke-opacity:1; 
stroke-linecap:round; stroke-linejoin:round;">
<text x="24349.685039" y="30249.960630"
textLength="2298.110236" font-size="666.653543" lengthAdjust="spacingAndGlyphs"
text-anchor="middle" opacity="0">+3.3V</text>
<g class="stroked-text"><desc>+3.3V</desc>
<path d="M23349 30035
L23730 30035
" />
<path d="M23540 30226
L23540 29845
" />
<path d="M23921 29726
L24230 29726
L24063 29916
L24135 29916
L24182 29940
L24206 29964
L24230 30011
L24230 30130
L24206 30178
L24182 30202
L24135 30226
L23992 30226
L23944 30202
L23921 30178
" />
<path d="M24444 30178
L24468 30202
L24444 30226
L24421 30202
L24444 30178
L24444 30226
" />
<path d="M24635 29726
L24944 29726
L24778 29916
L24849 29916
L24897 29940
L24921 29964
L24944 30011
L24944 30130
L24921 30178
L24897 30202
L24849 30226
L24706 30226
L24659 30202
L24635 30178
" />
<path d="M25087 29726
L25254 30226
L25421 29726
" />
</g></g>
</g>
<g style="fill:#006464; fill-opacity:0.0; 
stroke:#006464; stroke-width:62.519685; stroke-opacity:1; 
stroke-linecap:round; stroke-linejoin:round;">
</g>
<g style="fill:#006464; fill-opacity:0.0; 
stroke:#006464; stroke-width:60.000000; stroke-opacity:1; 
stroke-linecap:round; stroke-linejoin:round;">
</g>
<g style="fill:#0F0F0F; fill-opacity:0.0; 
stroke:#0F0F0F; stroke-width:60.000000; stroke-opacity:1; 
stroke-linecap:round; stroke-linejoin:round;">
<text x="20500.000000" y="23862.480315"
textLength="7560.000000" font-size="666.653543" lengthAdjust="spacingAndGlyphs"
text-anchor="start" opacity="0">UART RxD (S8 CO2)</text>
<g class="stroked-text"><desc>UART RxD (S8 CO2)</desc>
<path d="M20649 23338
L20649 23743
L20672 23791
L20696 23814
L20744 23838
L20839 23838
L20887 23814
L20910 23791
L20934 23743
L20934 23338
" />
<path d="M21149 23695
L21387 23695
" />
<path d="M21101 23838
L21268 23338
L21434 23838
" />
<path d="M21887 23838
L21720 23600
" />
<path d="M21601 23838
L21601 23338
L21791 23338
L21839 23362
L21863 23386
L21887 23433
L21887 23505
L21863 23552
L21839 23576
L21791 23600
L21601 23600
" />
<path d="M22030 23338
L22315 23338
" />
<path d="M22172 23838
L22172 23338
" />
<path d="M23149 23838
L22982 23600
" />
<path d="M22863 23838
L22863 23338
L23053 23338
L23101 23362
L23125 23386
L23149 23433
L23149 23505
L23125 23552
L23101 23576
L23053 23600
L22863 23600
" />
<path d="M23315 23838
L23577 23505
" />
<path d="M23315 23505
L23577 23838
" />
<path d="M23768 23838
L23768 23338
L23887 23338
L23958 23362
L24006 23410
L24030 23457
L24053 23552
L24053 23624
L24030 23719
L24006 23767
L23958 23814
L23887 23838
L23768 23838
" />
<path d="M24791 24029
L24768 24005
L24720 23933
L24696 23886
L24672 23814
L24649 23695
L24649 23600
L24672 23481
L24696 23410
L24720 23362
L24768 23291
L24791 23267
" />
<path d="M24958 23814
L25030 23838
L25149 23838
L25196 23814
L25220 23791
L25244 23743
L25244 23695
L25220 23648
L25196 23624
L25149 23600
L25053 23576
L25006 23552
L24982 23529
L24958 23481
L24958 23433
L24982 23386
L25006 23362
L25053 23338
L25172 23338
L25244 23362
" />
<path d="M25530 23552
L25482 23529
L25458 23505
L25434 23457
L25434 23433
L25458 23386
L25482 23362
L25530 23338
L25625 23338
L25672 23362
L25696 23386
L25720 23433
L25720 23457
L25696 23505
L25672 23529
L25625 23552
L25530 23552
L25482 23576
L25458 23600
L25434 23648
L25434 23743
L25458 23791
L25482 23814
L25530 23838
L25625 23838
L25672 23814
L25696 23791
L25720 23743
L25720 23648
L25696 23600
L25672 23576
L25625 23552
" />
<path d="M26601 23791
L26577 23814
L26506 23838
L26458 23838
L26387 23814
L26339 23767
L26315 23719
L26291 23624
L26291 23552
L26315 23457
L26339 23410
L26387 23362
L26458 23338
L26506 23338
L26577 23362
L26601 23386
" />
<path d="M26910 23338
L27006 23338
L27053 23362
L27101 23410
L27125 23505
L27125 23671
L27101 23767
L27053 23814
L27006 23838
L26910 23838
L26863 23814
L26815 23767
L26791 23671
L26791 23505
L26815 23410
L26863 23362
L26910 23338
" />
<path d="M27315 23386
L27339 23362
L27387 23338
L27506 23338
L27553 23362
L27577 23386
L27601 23433
L27601 23481
L27577 23552
L27291 23838
L27601 23838
" />
<path d="M27768 24029
L27791 24005
L27839 23933
L27863 23886
L27887 23814
L27910 23695
L27910 23600
L27887 23481
L27863 23410
L27839 23362
L27791 23291
L27768 23267
" />
</g></g>
<g style="fill:#0F0F0F; fill-opacity:0.0; 
stroke:#0F0F0F; stroke-width:62.519685; stroke-opacity:1; 
stroke-linecap:round; stroke-linejoin:round;">
</g>
<g style="fill:#0F0F0F; fill-opacity:0.0; 
stroke:#0F0F0F; stroke-width:60.000000; stroke-opacity:1; 
stroke-linecap:round; stroke-linejoin:round;">
<text x="20500.000000" y="28862.480315"
textLength="7274.291339" font-size="666.653543" lengthAdjust="spacingAndGlyphs"
text-anchor="start" opacity="0">SCL (se95 i2c scl)</text>
<g class="stroked-text"><desc>SCL (se95 i2c scl)</desc>
<path d="M20625 28814
L20696 28838
L20815 28838
L20863 28814
L20887 28791
L20910 28743
L20910 28695
L20887 28648
L20863 28624
L20815 28600
L20720 28576
L20672 28552
L20649 28529
L20625 28481
L20625 28433
L20649 28386
L20672 28362
L20720 28338
L20839 28338
L20910 28362
" />
<path d="M21410 28791
L21387 28814
L21315 28838
L21268 28838
L21196 28814
L21149 28767
L21125 28719
L21101 28624
L21101 28552
L21125 28457
L21149 28410
L21196 28362
L21268 28338
L21315 28338
L21387 28362
L21410 28386
" />
<path d="M21863 28838
L21625 28838
L21625 28338
" />
<path d="M22553 29029
L22530 29005
L22482 28933
L22458 28886
L22434 28814
L22410 28695
L22410 28600
L22434 28481
L22458 28410
L22482 28362
L22530 28291
L22553 28267
" />
<path d="M22720 28814
L22768 28838
L22863 28838
L22910 28814
L22934 28767
L22934 28743
L22910 28695
L22863 28671
L22791 28671
L22744 28648
L22720 28600
L22720 28576
L22744 28529
L22791 28505
L22863 28505
L22910 28529
" />
<path d="M23339 28814
L23291 28838
L23196 28838
L23149 28814
L23125 28767
L23125 28576
L23149 28529
L23196 28505
L23291 28505
L23339 28529
L23363 28576
L23363 28624
L23125 28671
" />
<path d="M23601 28838
L23696 28838
L23744 28814
L23768 28791
L23815 28719
L23839 28624
L23839 28433
L23815 28386
L23791 28362
L23744 28338
L23649 28338
L23601 28362
L23577 28386
L23553 28433
L23553 28552
L23577 28600
L23601 28624
L23649 28648
L23744 28648
L23791 28624
L23815 28600
L23839 28552
" />
<path d="M24291 28338
L24053 28338
L24030 28576
L24053 28552
L24101 28529
L24220 28529
L24268 28552
L24291 28576
L24315 28624
L24315 28743
L24291 28791
L24268 28814
L24220 28838
L24101 28838
L24053 28814
L24030 28791
" />
<path d="M24910 28838
L24910 28505
" />
<path d="M24910 28338
L24887 28362
L24910 28386
L24934 28362
L24910 28338
L24910 28386
" />
<path d="M25125 28386
L25149 28362
L25196 28338
L25315 28338
L25363 28362
L25387 28386
L25410 28433
L25410 28481
L25387 28552
L25101 28838
L25410 28838
" />
<path d="M25839 28814
L25791 28838
L25696 28838
L25649 28814
L25625 28791
L25601 28743
L25601 28600
L25625 28552
L25649 28529
L25696 28505
L25791 28505
L25839 28529
" />
<path d="M26410 28814
L26458 28838
L26553 28838
L26601 28814
L26625 28767
L26625 28743
L26601 28695
L26553 28671
L26482 28671
L26434 28648
L26410 28600
L26410 28576
L26434 28529
L26482 28505
L26553 28505
L26601 28529
" />
<path d="M27053 28814
L27006 28838
L26910 28838
L26863 28814
L26839 28791
L26815 28743
L26815 28600
L26839 28552
L26863 28529
L26910 28505
L27006 28505
L27053 28529
" />
<path d="M27339 28838
L27291 28814
L27268 28767
L27268 28338
" />
<path d="M27482 29029
L27506 29005
L27553 28933
L27577 28886
L27601 28814
L27625 28695
L27625 28600
L27601 28481
L27577 28410
L27553 28362
L27506 28291
L27482 28267
" />
</g></g>
<g style="fill:#0F0F0F; fill-opacity:0.0; 
stroke:#0F0F0F; stroke-width:62.519685; stroke-opacity:1; 
stroke-linecap:round; stroke-linejoin:round;">
</g>
<g style="fill:#0F0F0F; fill-opacity:0.0; 
stroke:#0F0F0F; stroke-width:60.000000; stroke-opacity:1; 
stroke-linecap:round; stroke-linejoin:round;">
<text x="20500.000000" y="24862.480315"
textLength="7440.944882" font-size="666.653543" lengthAdjust="spacingAndGlyphs"
text-anchor="start" opacity="0">UART TxD (S8 CO2)</text>
<g class="stroked-text"><desc>UART TxD (S8 CO2)</desc>
<path d="M20649 24338
L20649 24743
L20672 24791
L20696 24814
L20744 24838
L20839 24838
L20887 24814
L20910 24791
L20934 24743
L20934 24338
" />
<path d="M21149 24695
L21387 24695
" />
<path d="M21101 24838
L21268 24338
L21434 24838
" />
<path d="M21887 24838
L21720 24600
" />
<path d="M21601 24838
L21601 24338
L21791 24338
L21839 24362
L21863 24386
L21887 24433
L21887 24505
L21863 24552
L21839 24576
L21791 24600
L21601 24600
" />
<path d="M22030 24338
L22315 24338
" />
<path d="M22172 24838
L22172 24338
" />
<path d="M22791 24338
L23077 24338
" />
<path d="M22934 24838
L22934 24338
" />
<path d="M23196 24838
L23458 24505
" />
<path d="M23196 24505
L23458 24838
" />
<path d="M23649 24838
L23649 24338
L23768 24338
L23839 24362
L23887 24410
L23910 24457
L23934 24552
L23934 24624
L23910 24719
L23887 24767
L23839 24814
L23768 24838
L23649 24838
" />
<path d="M24672 25029
L24649 25005
L24601 24933
L24577 24886
L24553 24814
L24530 24695
L24530 24600
L24553 24481
L24577 24410
L24601 24362
L24649 24291
L24672 24267
" />
<path d="M24839 24814
L24910 24838
L25030 24838
L25077 24814
L25101 24791
L25125 24743
L25125 24695
L25101 24648
L25077 24624
L25030 24600
L24934 24576
L24887 24552
L24863 24529
L24839 24481
L24839 24433
L24863 24386
L24887 24362
L24934 24338
L25053 24338
L25125 24362
" />
<path d="M25410 24552
L25363 24529
L25339 24505
L25315 24457
L25315 24433
L25339 24386
L25363 24362
L25410 24338
L25506 24338
L25553 24362
L25577 24386
L25601 24433
L25601 24457
L25577 24505
L25553 24529
L25506 24552
L25410 24552
L25363 24576
L25339 24600
L25315 24648
L25315 24743
L25339 24791
L25363 24814
L25410 24838
L25506 24838
L25553 24814
L25577 24791
L25601 24743
L25601 24648
L25577 24600
L25553 24576
L25506 24552
" />
<path d="M26482 24791
L26458 24814
L26387 24838
L26339 24838
L26268 24814
L26220 24767
L26196 24719
L26172 24624
L26172 24552
L26196 24457
L26220 24410
L26268 24362
L26339 24338
L26387 24338
L26458 24362
L26482 24386
" />
<path d="M26791 24338
L26887 24338
L26934 24362
L26982 24410
L27006 24505
L27006 24671
L26982 24767
L26934 24814
L26887 24838
L26791 24838
L26744 24814
L26696 24767
L26672 24671
L26672 24505
L26696 24410
L26744 24362
L26791 24338
" />
<path d="M27196 24386
L27220 24362
L27268 24338
L27387 24338
L27434 24362
L27458 24386
L27482 24433
L27482 24481
L27458 24552
L27172 24838
L27482 24838
" />
<path d="M27649 25029
L27672 25005
L27720 24933
L27744 24886
L27768 24814
L27791 24695
L27791 24600
L27768 24481
L27744 24410
L27720 24362
L27672 24291
L27649 24267
" />
</g></g>
<g style="fill:#0F0F0F; fill-opacity:0.0; 
stroke:#0F0F0F; stroke-width:62.519685; stroke-opacity:1; 
stroke-linecap:round; stroke-linejoin:round;">
</g>
<g style="fill:#0F0F0F; fill-opacity:0.0; 
stroke:#0F0F0F; stroke-width:60.000000; stroke-opacity:1; 
stroke-linecap:round; stroke-linejoin:round;">
<text x="20500.000000" y="27862.480315"
textLength="7512.362205" font-size="666.653543" lengthAdjust="spacingAndGlyphs"
text-anchor="start" opacity="0">SDA (se95 i2c sda)</text>
<g class="stroked-text"><desc>SDA (se95 i2c sda)</desc>
<path d="M20625 27814
L20696 27838
L20815 27838
L20863 27814
L20887 27791
L20910 27743
L20910 27695
L20887 27648
L20863 27624
L20815 27600
L20720 27576
L20672 27552
L20649 27529
L20625 27481
L20625 27433
L20649 27386
L20672 27362
L20720 27338
L20839 27338
L20910 27362
" />
<path d="M21125 27838
L21125 27338
L21244 27338
L21315 27362
L21363 27410
L21387 27457
L21410 27552
L21410 27624
L21387 27719
L21363 27767
L21315 27814
L21244 27838
L21125 27838
" />
<path d="M21601 27695
L21839 27695
" />
<path d="M21553 27838
L21720 27338
L21887 27838
" />
<path d="M22577 28029
L22553 28005
L22506 27933
L22482 27886
L22458 27814
L22434 27695
L22434 27600
L22458 27481
L22482 27410
L22506 27362
L22553 27291
L22577 27267
" />
<path d="M22744 27814
L22791 27838
L22887 27838
L22934 27814
L22958 27767
L22958 27743
L22934 27695
L22887 27671
L22815 27671
L22768 27648
L22744 27600
L22744 27576
L22768 27529
L22815 27505
L22887 27505
L22934 27529
" />
<path d="M23363 27814
L23315 27838
L23220 27838
L23172 27814
L23149 27767
L23149 27576
L23172 27529
L23220 27505
L23315 27505
L23363 27529
L23387 27576
L23387 27624
L23149 27671
" />
<path d="M23625 27838
L23720 27838
L23768 27814
L23791 27791
L23839 27719
L23863 27624
L23863 27433
L23839 27386
L23815 27362
L23768 27338
L23672 27338
L23625 27362
L23601 27386
L23577 27433
L23577 27552
L23601 27600
L23625 27624
L23672 27648
L23768 27648
L23815 27624
L23839 27600
L23863 27552
" />
<path d="M24315 27338
L24077 27338
L24053 27576
L24077 27552
L24125 27529
L24244 27529
L24291 27552
L24315 27576
L24339 27624
L24339 27743
L24315 27791
L24291 27814
L24244 27838
L24125 27838
L24077 27814
L24053 27791
" />
<path d="M24934 27838
L24934 27505
" />
<path d="M24934 27338
L24910 27362
L24934 27386
L24958 27362
L24934 27338
L24934 27386
" />
<path d="M25149 27386
L25172 27362
L25220 27338
L25339 27338
L25387 27362
L25410 27386
L25434 27433
L25434 27481
L25410 27552
L25125 27838
L25434 27838
" />
<path d="M25863 27814
L25815 27838
L25720 27838
L25672 27814
L25649 27791
L25625 27743
L25625 27600
L25649 27552
L25672 27529
L25720 27505
L25815 27505
L25863 27529
" />
<path d="M26434 27814
L26482 27838
L26577 27838
L26625 27814
L26649 27767
L26649 27743
L26625 27695
L26577 27671
L26506 27671
L26458 27648
L26434 27600
L26434 27576
L26458 27529
L26506 27505
L26577 27505
L26625 27529
" />
<path d="M27077 27838
L27077 27338
" />
<path d="M27077 27814
L27030 27838
L26934 27838
L26887 27814
L26863 27791
L26839 27743
L26839 27600
L26863 27552
L26887 27529
L26934 27505
L27030 27505
L27077 27529
" />
<path d="M27530 27838
L27530 27576
L27506 27529
L27458 27505
L27363 27505
L27315 27529
" />
<path d="M27530 27814
L27482 27838
L27363 27838
L27315 27814
L27291 27767
L27291 27719
L27315 27671
L27363 27648
L27482 27648
L27530 27624
" />
<path d="M27720 28029
L27744 28005
L27791 27933
L27815 27886
L27839 27814
L27863 27695
L27863 27600
L27839 27481
L27815 27410
L27791 27362
L27744 27291
L27720 27267
" />
</g></g>
<g style="fill:#009600; fill-opacity:0.0; 
stroke:#009600; stroke-width:60.000000; stroke-opacity:1; 
stroke-linecap:round; stroke-linejoin:round;">
<path d="M30000 26000
L33000 26000
" />
<path d="M33000 30000
L27000 30000
" />
<path d="M27000 23000
L33000 23000
" />
<path d="M30000 26500
L30000 26000
" />
<path d="M20000 29000
L33000 29000
" />
<path d="M20000 24000
L33000 24000
" />
<path d="M20000 28000
L33000 28000
" />
<path d="M20000 25000
L33000 25000
" />
</g> 
</svg>
