<?xml version="1.0" standalone="no"?>
 <!DOCTYPE svg PUBLIC "-//W3C//DTD SVG 1.1//EN" 
 "http://www.w3.org/Graphics/SVG/1.1/DTD/svg11.dtd"> 
<svg
  xmlns:svg="http://www.w3.org/2000/svg"
  xmlns="http://www.w3.org/2000/svg"
  xmlns:xlink="http://www.w3.org/1999/xlink"
  version="1.1"
  width="5.001260cm" height="5.001260cm" viewBox="0 0 19690 19690">
<title>SVG Picture created as duco_co2.svg date 2024/02/04 16:19:48 </title>
  <desc>Picture generated by Eeschema-SVG </desc>
<g style="fill:#000000; fill-opacity:1.000000;stroke:#000000; stroke-opacity:1.000000;
stroke-linecap:round; stroke-linejoin:round;"
 transform="translate(0 0) scale(1 1)">
</g>
<g style="fill:#F5F4EF; fill-opacity:0.0; 
stroke:#F5F4EF; stroke-width:0.000000; stroke-opacity:1; 
stroke-linecap:round; stroke-linejoin:round;">
</g>
<g style="fill:#F5F4EF; fill-opacity:1.0; 
stroke:#F5F4EF; stroke-width:0.039370; stroke-opacity:1; 
stroke-linecap:round; stroke-linejoin:round;">
<rect x="0.000000" y="0.000000" width="19690.000000" height="19690.000000" rx="0.000000" />
</g>
<g style="fill:#840000; fill-opacity:1.0; 
stroke:#840000; stroke-width:0.039370; stroke-opacity:1; 
stroke-linecap:round; stroke-linejoin:round;">
</g>
<g style="fill:#840000; fill-opacity:1.0; 
stroke:#840000; stroke-width:60.000000; stroke-opacity:1; 
stroke-linecap:round; stroke-linejoin:round;">
</g>
<g style="fill:#840000; fill-opacity:0.0; 
stroke:#840000; stroke-width:60.000000; stroke-opacity:1; 
stroke-linecap:round; stroke-linejoin:round;">
<path d="M17721 17721
L17721 17721
" />
<g >
</g>
<g style="fill:#FFFFC2; fill-opacity:0.0; 
stroke:#FFFFC2; stroke-width:60.000000; stroke-opacity:1; 
stroke-linecap:round; stroke-linejoin:round;">
</g>
<g style="fill:#FFFFC2; fill-opacity:0.6; 
stroke:#FFFFC2; stroke-width:0.039370; stroke-opacity:1; 
stroke-linecap:round; stroke-linejoin:round;">
<rect x="15500.000000" y="6000.000000" width="1000.000000" height="8000.000000" rx="0.000000" />
</g>
<g style="fill:#840000; fill-opacity:0.6; 
stroke:#840000; stroke-width:0.039370; stroke-opacity:1; 
stroke-linecap:round; stroke-linejoin:round;">
</g>
<g style="fill:#840000; fill-opacity:0.0; 
stroke:#840000; stroke-width:100.000000; stroke-opacity:1; 
stroke-linecap:round; stroke-linejoin:round;">
<rect x="15500.000000" y="6000.000000" width="1000.000000" height="8000.000000" rx="0.000000" />
</g>
<g style="fill:#840000; fill-opacity:0.0; 
stroke:#840000; stroke-width:60.000000; stroke-opacity:1; 
stroke-linecap:round; stroke-linejoin:round;">
<rect x="15500.000000" y="6450.000000" width="500.000000" height="100.000000" rx="0.000000" />
<rect x="15500.000000" y="7450.000000" width="500.000000" height="100.000000" rx="0.000000" />
<rect x="15500.000000" y="8450.000000" width="500.000000" height="100.000000" rx="0.000000" />
<rect x="15500.000000" y="9450.000000" width="500.000000" height="100.000000" rx="0.000000" />
<rect x="15500.000000" y="10450.000000" width="500.000000" height="100.000000" rx="0.000000" />
<rect x="15500.000000" y="11450.000000" width="500.000000" height="100.000000" rx="0.000000" />
<rect x="15500.000000" y="12450.000000" width="500.000000" height="100.000000" rx="0.000000" />
<rect x="15500.000000" y="13450.000000" width="500.000000" height="100.000000" rx="0.000000" />
</g>
<g style="fill:#840000; fill-opacity:0.0; 
stroke:#840000; stroke-width:100.000000; stroke-opacity:1; 
stroke-linecap:round; stroke-linejoin:round;">
<rect x="15500.000000" y="6000.000000" width="1000.000000" height="8000.000000" rx="0.000000" />
</g>
<g style="fill:#840000; fill-opacity:0.0; 
stroke:#840000; stroke-width:60.000000; stroke-opacity:1; 
stroke-linecap:round; stroke-linejoin:round;">
<path d="M15500 13500
L14000 13500
" />
</g>
<g style="fill:#A90000; fill-opacity:0.0; 
stroke:#A90000; stroke-width:60.000000; stroke-opacity:1; 
stroke-linecap:round; stroke-linejoin:round;">
<text x="14750.000000" y="13400.000000"
textLength="536.181102" font-size="666.653543" lengthAdjust="spacingAndGlyphs"
text-anchor="middle" opacity="0">1</text>
<g class="stroked-text"><desc>1</desc>
<path d="M14892 13376
L14607 13376
" />
<path d="M14750 13376
L14750 12876
L14702 12947
L14654 12995
L14607 13019
" />
</g></g>
<g style="fill:#840000; fill-opacity:0.0; 
stroke:#840000; stroke-width:60.000000; stroke-opacity:1; 
stroke-linecap:round; stroke-linejoin:round;">
<path d="M15500 12500
L14000 12500
" />
</g>
<g style="fill:#A90000; fill-opacity:0.0; 
stroke:#A90000; stroke-width:60.000000; stroke-opacity:1; 
stroke-linecap:round; stroke-linejoin:round;">
<text x="14750.000000" y="12400.000000"
textLength="536.181102" font-size="666.653543" lengthAdjust="spacingAndGlyphs"
text-anchor="middle" opacity="0">2</text>
<g class="stroked-text"><desc>2</desc>
<path d="M14607 11923
L14630 11900
L14678 11876
L14797 11876
L14845 11900
L14869 11923
L14892 11971
L14892 12019
L14869 12090
L14583 12376
L14892 12376
" />
</g></g>
<g style="fill:#840000; fill-opacity:0.0; 
stroke:#840000; stroke-width:60.000000; stroke-opacity:1; 
stroke-linecap:round; stroke-linejoin:round;">
<path d="M15500 11500
L14000 11500
" />
</g>
<g style="fill:#A90000; fill-opacity:0.0; 
stroke:#A90000; stroke-width:60.000000; stroke-opacity:1; 
stroke-linecap:round; stroke-linejoin:round;">
<text x="14750.000000" y="11400.000000"
textLength="536.181102" font-size="666.653543" lengthAdjust="spacingAndGlyphs"
text-anchor="middle" opacity="0">3</text>
<g class="stroked-text"><desc>3</desc>
<path d="M14583 10876
L14892 10876
L14726 11066
L14797 11066
L14845 11090
L14869 11114
L14892 11161
L14892 11280
L14869 11328
L14845 11352
L14797 11376
L14654 11376
L14607 11352
L14583 11328
" />
</g></g>
<g style="fill:#840000; fill-opacity:0.0; 
stroke:#840000; stroke-width:60.000000; stroke-opacity:1; 
stroke-linecap:round; stroke-linejoin:round;">
<path d="M15500 10500
L14000 10500
" />
</g>
<g style="fill:#A90000; fill-opacity:0.0; 
stroke:#A90000; stroke-width:60.000000; stroke-opacity:1; 
stroke-linecap:round; stroke-linejoin:round;">
<text x="14750.000000" y="10400.000000"
textLength="536.181102" font-size="666.653543" lengthAdjust="spacingAndGlyphs"
text-anchor="middle" opacity="0">4</text>
<g class="stroked-text"><desc>4</desc>
<path d="M14845 10042
L14845 10376
" />
<path d="M14726 9852
L14607 10209
L14916 10209
" />
</g></g>
<g style="fill:#840000; fill-opacity:0.0; 
stroke:#840000; stroke-width:60.000000; stroke-opacity:1; 
stroke-linecap:round; stroke-linejoin:round;">
<path d="M15500 9500
L14000 9500
" />
</g>
<g style="fill:#A90000; fill-opacity:0.0; 
stroke:#A90000; stroke-width:60.000000; stroke-opacity:1; 
stroke-linecap:round; stroke-linejoin:round;">
<text x="14750.000000" y="9400.000000"
textLength="536.181102" font-size="666.653543" lengthAdjust="spacingAndGlyphs"
text-anchor="middle" opacity="0">5</text>
<g class="stroked-text"><desc>5</desc>
<path d="M14869 8876
L14630 8876
L14607 9114
L14630 9090
L14678 9066
L14797 9066
L14845 9090
L14869 9114
L14892 9161
L14892 9280
L14869 9328
L14845 9352
L14797 9376
L14678 9376
L14630 9352
L14607 9328
" />
</g></g>
<g style="fill:#840000; fill-opacity:0.0; 
stroke:#840000; stroke-width:60.000000; stroke-opacity:1; 
stroke-linecap:round; stroke-linejoin:round;">
<path d="M15500 8500
L14000 8500
" />
</g>
<g style="fill:#A90000; fill-opacity:0.0; 
stroke:#A90000; stroke-width:60.000000; stroke-opacity:1; 
stroke-linecap:round; stroke-linejoin:round;">
<text x="14750.000000" y="8400.000000"
textLength="536.181102" font-size="666.653543" lengthAdjust="spacingAndGlyphs"
text-anchor="middle" opacity="0">6</text>
<g class="stroked-text"><desc>6</desc>
<path d="M14845 7876
L14750 7876
L14702 7900
L14678 7923
L14630 7995
L14607 8090
L14607 8280
L14630 8328
L14654 8352
L14702 8376
L14797 8376
L14845 8352
L14869 8328
L14892 8280
L14892 8161
L14869 8114
L14845 8090
L14797 8066
L14702 8066
L14654 8090
L14630 8114
L14607 8161
" />
</g></g>
<g style="fill:#840000; fill-opacity:0.0; 
stroke:#840000; stroke-width:60.000000; stroke-opacity:1; 
stroke-linecap:round; stroke-linejoin:round;">
<path d="M15500 7500
L14000 7500
" />
</g>
<g style="fill:#A90000; fill-opacity:0.0; 
stroke:#A90000; stroke-width:60.000000; stroke-opacity:1; 
stroke-linecap:round; stroke-linejoin:round;">
<text x="14750.000000" y="7400.000000"
textLength="536.181102" font-size="666.653543" lengthAdjust="spacingAndGlyphs"
text-anchor="middle" opacity="0">7</text>
<g class="stroked-text"><desc>7</desc>
<path d="M14583 6876
L14916 6876
L14702 7376
" />
</g></g>
<g style="fill:#840000; fill-opacity:0.0; 
stroke:#840000; stroke-width:60.000000; stroke-opacity:1; 
stroke-linecap:round; stroke-linejoin:round;">
<path d="M15500 6500
L14000 6500
" />
</g>
<g style="fill:#A90000; fill-opacity:0.0; 
stroke:#A90000; stroke-width:60.000000; stroke-opacity:1; 
stroke-linecap:round; stroke-linejoin:round;">
<text x="14750.000000" y="6400.000000"
textLength="536.181102" font-size="666.653543" lengthAdjust="spacingAndGlyphs"
text-anchor="middle" opacity="0">8</text>
<g class="stroked-text"><desc>8</desc>
<path d="M14702 6090
L14654 6066
L14630 6042
L14607 5995
L14607 5971
L14630 5923
L14654 5900
L14702 5876
L14797 5876
L14845 5900
L14869 5923
L14892 5971
L14892 5995
L14869 6042
L14845 6066
L14797 6090
L14702 6090
L14654 6114
L14630 6138
L14607 6185
L14607 6280
L14630 6328
L14654 6352
L14702 6376
L14797 6376
L14845 6352
L14869 6328
L14892 6280
L14892 6185
L14869 6138
L14845 6114
L14797 6090
" />
</g></g>
<g style="fill:#006464; fill-opacity:0.0; 
stroke:#006464; stroke-width:60.000000; stroke-opacity:1; 
stroke-linecap:round; stroke-linejoin:round;">
<text x="16000.000000" y="4250.000000"
textLength="1012.362205" font-size="666.653543" lengthAdjust="spacingAndGlyphs"
text-anchor="middle" opacity="0">X1</text>
<g class="stroked-text"><desc>X1</desc>
<path d="M15595 3726
L15928 4226
" />
<path d="M15928 3726
L15595 4226
" />
<path d="M16380 4226
L16095 4226
" />
<path d="M16238 4226
L16238 3726
L16190 3797
L16142 3845
L16095 3869
" />
</g><text x="16000.000000" y="5250.000000"
textLength="6226.653543" font-size="666.653543" lengthAdjust="spacingAndGlyphs"
text-anchor="middle" opacity="0">S8B-PH-K-S 8</text>
<g class="stroked-text"><desc>S8B-PH-K-S 8</desc>
<path d="M13011 5202
L13083 5226
L13202 5226
L13250 5202
L13273 5178
L13297 5130
L13297 5083
L13273 5035
L13250 5011
L13202 4988
L13107 4964
L13059 4940
L13035 4916
L13011 4869
L13011 4821
L13035 4773
L13059 4750
L13107 4726
L13226 4726
L13297 4750
" />
<path d="M13583 4940
L13535 4916
L13511 4892
L13488 4845
L13488 4821
L13511 4773
L13535 4750
L13583 4726
L13678 4726
L13726 4750
L13750 4773
L13773 4821
L13773 4845
L13750 4892
L13726 4916
L13678 4940
L13583 4940
L13535 4964
L13511 4988
L13488 5035
L13488 5130
L13511 5178
L13535 5202
L13583 5226
L13678 5226
L13726 5202
L13750 5178
L13773 5130
L13773 5035
L13750 4988
L13726 4964
L13678 4940
" />
<path d="M14154 4964
L14226 4988
L14250 5011
L14273 5059
L14273 5130
L14250 5178
L14226 5202
L14178 5226
L13988 5226
L13988 4726
L14154 4726
L14202 4750
L14226 4773
L14250 4821
L14250 4869
L14226 4916
L14202 4940
L14154 4964
L13988 4964
" />
<path d="M14488 5035
L14869 5035
" />
<path d="M15107 5226
L15107 4726
L15297 4726
L15345 4750
L15369 4773
L15392 4821
L15392 4892
L15369 4940
L15345 4964
L15297 4988
L15107 4988
" />
<path d="M15607 5226
L15607 4726
" />
<path d="M15607 4964
L15892 4964
" />
<path d="M15892 5226
L15892 4726
" />
<path d="M16130 5035
L16511 5035
" />
<path d="M16750 5226
L16750 4726
" />
<path d="M17035 5226
L16821 4940
" />
<path d="M17035 4726
L16750 5011
" />
<path d="M17250 5035
L17630 5035
" />
<path d="M17845 5202
L17916 5226
L18035 5226
L18083 5202
L18107 5178
L18130 5130
L18130 5083
L18107 5035
L18083 5011
L18035 4988
L17940 4964
L17892 4940
L17869 4916
L17845 4869
L17845 4821
L17869 4773
L17892 4750
L17940 4726
L18059 4726
L18130 4750
" />
<path d="M18797 4940
L18750 4916
L18726 4892
L18702 4845
L18702 4821
L18726 4773
L18750 4750
L18797 4726
L18892 4726
L18940 4750
L18964 4773
L18988 4821
L18988 4845
L18964 4892
L18940 4916
L18892 4940
L18797 4940
L18750 4964
L18726 4988
L18702 5035
L18702 5130
L18726 5178
L18750 5202
L18797 5226
L18892 5226
L18940 5202
L18964 5178
L18988 5130
L18988 5035
L18964 4988
L18940 4964
L18892 4940
" />
</g></g>
</g>
<g style="fill:#006464; fill-opacity:0.0; 
stroke:#006464; stroke-width:60.000000; stroke-opacity:1; 
stroke-linecap:round; stroke-linejoin:round;">
<g >
</g>
<g style="fill:#840000; fill-opacity:0.0; 
stroke:#840000; stroke-width:60.000000; stroke-opacity:1; 
stroke-linecap:round; stroke-linejoin:round;">
<path style="fill:#840000; fill-opacity:0.0; 
stroke:#840000; stroke-width:60.000000; stroke-opacity:1; 
stroke-linecap:round; stroke-linejoin:round;fill:none"
d="M 7700.000000,6000.000000
8000.000000,5500.000000
" /> 
<path style="fill:#840000; fill-opacity:0.0; 
stroke:#840000; stroke-width:60.000000; stroke-opacity:1; 
stroke-linecap:round; stroke-linejoin:round;fill:none"
d="M 8000.000000,6500.000000
8000.000000,5500.000000
" /> 
<path style="fill:#840000; fill-opacity:0.0; 
stroke:#840000; stroke-width:60.000000; stroke-opacity:1; 
stroke-linecap:round; stroke-linejoin:round;fill:none"
d="M 8000.000000,5500.000000
8300.000000,6000.000000
" /> 
</g>
<g style="fill:#006464; fill-opacity:0.0; 
stroke:#006464; stroke-width:60.000000; stroke-opacity:1; 
stroke-linecap:round; stroke-linejoin:round;">
<text x="8000.000000" y="4749.960630"
textLength="1583.818898" font-size="666.653543" lengthAdjust="spacingAndGlyphs"
text-anchor="middle" opacity="0">+5V</text>
<g class="stroked-text"><desc>+5V</desc>
<path d="M7357 4535
L7738 4535
" />
<path d="M7547 4726
L7547 4345
" />
<path d="M8214 4226
L7976 4226
L7952 4464
L7976 4440
L8023 4416
L8142 4416
L8190 4440
L8214 4464
L8238 4511
L8238 4630
L8214 4678
L8190 4702
L8142 4726
L8023 4726
L7976 4702
L7952 4678
" />
<path d="M8380 4226
L8547 4726
L8714 4226
" />
</g></g>
</g>
<g style="fill:#006464; fill-opacity:0.0; 
stroke:#006464; stroke-width:60.000000; stroke-opacity:1; 
stroke-linecap:round; stroke-linejoin:round;">
<g >
</g>
<g style="fill:#840000; fill-opacity:0.0; 
stroke:#840000; stroke-width:60.000000; stroke-opacity:1; 
stroke-linecap:round; stroke-linejoin:round;">
<path style="fill:#840000; fill-opacity:0.0; 
stroke:#840000; stroke-width:60.000000; stroke-opacity:1; 
stroke-linecap:round; stroke-linejoin:round;fill:none"
d="M 11000.000000,10000.000000
11000.000000,10500.000000
11500.000000,10500.000000
11000.000000,11000.000000
10500.000000,10500.000000
11000.000000,10500.000000
" /> 
</g>
<g style="fill:#006464; fill-opacity:0.0; 
stroke:#006464; stroke-width:60.000000; stroke-opacity:1; 
stroke-linecap:round; stroke-linejoin:round;">
<text x="12500.000000" y="10749.960630"
textLength="1583.818898" font-size="666.653543" lengthAdjust="spacingAndGlyphs"
text-anchor="middle" opacity="0">GND</text>
<g class="stroked-text"><desc>GND</desc>
<path d="M12119 10249
L12071 10226
L12000 10226
L11928 10249
L11880 10297
L11857 10345
L11833 10440
L11833 10511
L11857 10607
L11880 10654
L11928 10702
L12000 10726
L12047 10726
L12119 10702
L12142 10678
L12142 10511
L12047 10511
" />
<path d="M12357 10726
L12357 10226
L12642 10726
L12642 10226
" />
<path d="M12880 10726
L12880 10226
L13000 10226
L13071 10249
L13119 10297
L13142 10345
L13166 10440
L13166 10511
L13142 10607
L13119 10654
L13071 10702
L13000 10726
L12880 10726
" />
</g></g>
</g>
<g style="fill:#006464; fill-opacity:0.0; 
stroke:#006464; stroke-width:60.000000; stroke-opacity:1; 
stroke-linecap:round; stroke-linejoin:round;">
<g >
</g>
<g style="fill:#840000; fill-opacity:0.0; 
stroke:#840000; stroke-width:60.000000; stroke-opacity:1; 
stroke-linecap:round; stroke-linejoin:round;">
<path style="fill:#840000; fill-opacity:0.0; 
stroke:#840000; stroke-width:60.000000; stroke-opacity:1; 
stroke-linecap:round; stroke-linejoin:round;fill:none"
d="M 7500.000000,13800.000000
7000.000000,13500.000000
" /> 
<path style="fill:#840000; fill-opacity:0.0; 
stroke:#840000; stroke-width:60.000000; stroke-opacity:1; 
stroke-linecap:round; stroke-linejoin:round;fill:none"
d="M 8000.000000,13500.000000
7000.000000,13500.000000
" /> 
<path style="fill:#840000; fill-opacity:0.0; 
stroke:#840000; stroke-width:60.000000; stroke-opacity:1; 
stroke-linecap:round; stroke-linejoin:round;fill:none"
d="M 7000.000000,13500.000000
7500.000000,13200.000000
" /> 
</g>
<g style="fill:#006464; fill-opacity:0.0; 
stroke:#006464; stroke-width:60.000000; stroke-opacity:1; 
stroke-linecap:round; stroke-linejoin:round;">
<text x="5349.685039" y="13749.960630"
textLength="2298.110236" font-size="666.653543" lengthAdjust="spacingAndGlyphs"
text-anchor="middle" opacity="0">+3.3V</text>
<g class="stroked-text"><desc>+3.3V</desc>
<path d="M4349 13535
L4730 13535
" />
<path d="M4540 13726
L4540 13345
" />
<path d="M4921 13226
L5230 13226
L5063 13416
L5135 13416
L5182 13440
L5206 13464
L5230 13511
L5230 13630
L5206 13678
L5182 13702
L5135 13726
L4992 13726
L4944 13702
L4921 13678
" />
<path d="M5444 13678
L5468 13702
L5444 13726
L5421 13702
L5444 13678
L5444 13726
" />
<path d="M5635 13226
L5944 13226
L5778 13416
L5849 13416
L5897 13440
L5921 13464
L5944 13511
L5944 13630
L5921 13678
L5897 13702
L5849 13726
L5706 13726
L5659 13702
L5635 13678
" />
<path d="M6087 13226
L6254 13726
L6421 13226
" />
</g></g>
</g>
<g style="fill:#006464; fill-opacity:0.0; 
stroke:#006464; stroke-width:62.519685; stroke-opacity:1; 
stroke-linecap:round; stroke-linejoin:round;">
</g>
<g style="fill:#006464; fill-opacity:0.0; 
stroke:#006464; stroke-width:60.000000; stroke-opacity:1; 
stroke-linecap:round; stroke-linejoin:round;">
</g>
<g style="fill:#0F0F0F; fill-opacity:0.0; 
stroke:#0F0F0F; stroke-width:60.000000; stroke-opacity:1; 
stroke-linecap:round; stroke-linejoin:round;">
<text x="1500.000000" y="12362.480315"
textLength="7274.291339" font-size="666.653543" lengthAdjust="spacingAndGlyphs"
text-anchor="start" opacity="0">SCL (se95 i2c scl)</text>
<g class="stroked-text"><desc>SCL (se95 i2c scl)</desc>
<path d="M1625 12314
L1696 12338
L1815 12338
L1863 12314
L1887 12291
L1910 12243
L1910 12195
L1887 12148
L1863 12124
L1815 12100
L1720 12076
L1672 12052
L1649 12029
L1625 11981
L1625 11933
L1649 11886
L1672 11862
L1720 11838
L1839 11838
L1910 11862
" />
<path d="M2410 12291
L2387 12314
L2315 12338
L2268 12338
L2196 12314
L2149 12267
L2125 12219
L2101 12124
L2101 12052
L2125 11957
L2149 11910
L2196 11862
L2268 11838
L2315 11838
L2387 11862
L2410 11886
" />
<path d="M2863 12338
L2625 12338
L2625 11838
" />
<path d="M3553 12529
L3530 12505
L3482 12433
L3458 12386
L3434 12314
L3410 12195
L3410 12100
L3434 11981
L3458 11910
L3482 11862
L3530 11791
L3553 11767
" />
<path d="M3720 12314
L3768 12338
L3863 12338
L3910 12314
L3934 12267
L3934 12243
L3910 12195
L3863 12171
L3791 12171
L3744 12148
L3720 12100
L3720 12076
L3744 12029
L3791 12005
L3863 12005
L3910 12029
" />
<path d="M4339 12314
L4291 12338
L4196 12338
L4149 12314
L4125 12267
L4125 12076
L4149 12029
L4196 12005
L4291 12005
L4339 12029
L4363 12076
L4363 12124
L4125 12171
" />
<path d="M4601 12338
L4696 12338
L4744 12314
L4768 12291
L4815 12219
L4839 12124
L4839 11933
L4815 11886
L4791 11862
L4744 11838
L4649 11838
L4601 11862
L4577 11886
L4553 11933
L4553 12052
L4577 12100
L4601 12124
L4649 12148
L4744 12148
L4791 12124
L4815 12100
L4839 12052
" />
<path d="M5291 11838
L5053 11838
L5029 12076
L5053 12052
L5101 12029
L5220 12029
L5268 12052
L5291 12076
L5315 12124
L5315 12243
L5291 12291
L5268 12314
L5220 12338
L5101 12338
L5053 12314
L5029 12291
" />
<path d="M5910 12338
L5910 12005
" />
<path d="M5910 11838
L5887 11862
L5910 11886
L5934 11862
L5910 11838
L5910 11886
" />
<path d="M6125 11886
L6149 11862
L6196 11838
L6315 11838
L6363 11862
L6387 11886
L6410 11933
L6410 11981
L6387 12052
L6101 12338
L6410 12338
" />
<path d="M6839 12314
L6791 12338
L6696 12338
L6649 12314
L6625 12291
L6601 12243
L6601 12100
L6625 12052
L6649 12029
L6696 12005
L6791 12005
L6839 12029
" />
<path d="M7410 12314
L7458 12338
L7553 12338
L7601 12314
L7625 12267
L7625 12243
L7601 12195
L7553 12171
L7482 12171
L7434 12148
L7410 12100
L7410 12076
L7434 12029
L7482 12005
L7553 12005
L7601 12029
" />
<path d="M8053 12314
L8006 12338
L7910 12338
L7863 12314
L7839 12291
L7815 12243
L7815 12100
L7839 12052
L7863 12029
L7910 12005
L8006 12005
L8053 12029
" />
<path d="M8339 12338
L8291 12314
L8268 12267
L8268 11838
" />
<path d="M8482 12529
L8506 12505
L8553 12433
L8577 12386
L8601 12314
L8625 12195
L8625 12100
L8601 11981
L8577 11910
L8553 11862
L8506 11791
L8482 11767
" />
</g></g>
<g style="fill:#0F0F0F; fill-opacity:0.0; 
stroke:#0F0F0F; stroke-width:62.519685; stroke-opacity:1; 
stroke-linecap:round; stroke-linejoin:round;">
</g>
<g style="fill:#0F0F0F; fill-opacity:0.0; 
stroke:#0F0F0F; stroke-width:60.000000; stroke-opacity:1; 
stroke-linecap:round; stroke-linejoin:round;">
<text x="1500.000000" y="7362.480315"
textLength="7560.000000" font-size="666.653543" lengthAdjust="spacingAndGlyphs"
text-anchor="start" opacity="0">UART RxD (S8 CO2)</text>
<g class="stroked-text"><desc>UART RxD (S8 CO2)</desc>
<path d="M1649 6838
L1649 7243
L1672 7291
L1696 7314
L1744 7338
L1839 7338
L1887 7314
L1910 7291
L1934 7243
L1934 6838
" />
<path d="M2149 7195
L2387 7195
" />
<path d="M2101 7338
L2268 6838
L2434 7338
" />
<path d="M2887 7338
L2720 7100
" />
<path d="M2601 7338
L2601 6838
L2791 6838
L2839 6862
L2863 6886
L2887 6933
L2887 7005
L2863 7052
L2839 7076
L2791 7100
L2601 7100
" />
<path d="M3030 6838
L3315 6838
" />
<path d="M3172 7338
L3172 6838
" />
<path d="M4149 7338
L3982 7100
" />
<path d="M3863 7338
L3863 6838
L4053 6838
L4101 6862
L4125 6886
L4149 6933
L4149 7005
L4125 7052
L4101 7076
L4053 7100
L3863 7100
" />
<path d="M4315 7338
L4577 7005
" />
<path d="M4315 7005
L4577 7338
" />
<path d="M4768 7338
L4768 6838
L4887 6838
L4958 6862
L5006 6910
L5029 6957
L5053 7052
L5053 7124
L5029 7219
L5006 7267
L4958 7314
L4887 7338
L4768 7338
" />
<path d="M5791 7529
L5768 7505
L5720 7433
L5696 7386
L5672 7314
L5649 7195
L5649 7100
L5672 6981
L5696 6910
L5720 6862
L5768 6791
L5791 6767
" />
<path d="M5958 7314
L6030 7338
L6149 7338
L6196 7314
L6220 7291
L6244 7243
L6244 7195
L6220 7148
L6196 7124
L6149 7100
L6053 7076
L6006 7052
L5982 7029
L5958 6981
L5958 6933
L5982 6886
L6006 6862
L6053 6838
L6172 6838
L6244 6862
" />
<path d="M6530 7052
L6482 7029
L6458 7005
L6434 6957
L6434 6933
L6458 6886
L6482 6862
L6530 6838
L6625 6838
L6672 6862
L6696 6886
L6720 6933
L6720 6957
L6696 7005
L6672 7029
L6625 7052
L6530 7052
L6482 7076
L6458 7100
L6434 7148
L6434 7243
L6458 7291
L6482 7314
L6530 7338
L6625 7338
L6672 7314
L6696 7291
L6720 7243
L6720 7148
L6696 7100
L6672 7076
L6625 7052
" />
<path d="M7601 7291
L7577 7314
L7506 7338
L7458 7338
L7387 7314
L7339 7267
L7315 7219
L7291 7124
L7291 7052
L7315 6957
L7339 6910
L7387 6862
L7458 6838
L7506 6838
L7577 6862
L7601 6886
" />
<path d="M7910 6838
L8006 6838
L8053 6862
L8101 6910
L8125 7005
L8125 7171
L8101 7267
L8053 7314
L8006 7338
L7910 7338
L7863 7314
L7815 7267
L7791 7171
L7791 7005
L7815 6910
L7863 6862
L7910 6838
" />
<path d="M8315 6886
L8339 6862
L8387 6838
L8506 6838
L8553 6862
L8577 6886
L8601 6933
L8601 6981
L8577 7052
L8291 7338
L8601 7338
" />
<path d="M8768 7529
L8791 7505
L8839 7433
L8863 7386
L8887 7314
L8910 7195
L8910 7100
L8887 6981
L8863 6910
L8839 6862
L8791 6791
L8768 6767
" />
</g></g>
<g style="fill:#0F0F0F; fill-opacity:0.0; 
stroke:#0F0F0F; stroke-width:62.519685; stroke-opacity:1; 
stroke-linecap:round; stroke-linejoin:round;">
</g>
<g style="fill:#0F0F0F; fill-opacity:0.0; 
stroke:#0F0F0F; stroke-width:60.000000; stroke-opacity:1; 
stroke-linecap:round; stroke-linejoin:round;">
<text x="1500.000000" y="11362.480315"
textLength="7512.362205" font-size="666.653543" lengthAdjust="spacingAndGlyphs"
text-anchor="start" opacity="0">SDA (se95 i2c sda)</text>
<g class="stroked-text"><desc>SDA (se95 i2c sda)</desc>
<path d="M1625 11314
L1696 11338
L1815 11338
L1863 11314
L1887 11291
L1910 11243
L1910 11195
L1887 11148
L1863 11124
L1815 11100
L1720 11076
L1672 11052
L1649 11029
L1625 10981
L1625 10933
L1649 10886
L1672 10862
L1720 10838
L1839 10838
L1910 10862
" />
<path d="M2125 11338
L2125 10838
L2244 10838
L2315 10862
L2363 10910
L2387 10957
L2410 11052
L2410 11124
L2387 11219
L2363 11267
L2315 11314
L2244 11338
L2125 11338
" />
<path d="M2601 11195
L2839 11195
" />
<path d="M2553 11338
L2720 10838
L2887 11338
" />
<path d="M3577 11529
L3553 11505
L3506 11433
L3482 11386
L3458 11314
L3434 11195
L3434 11100
L3458 10981
L3482 10910
L3506 10862
L3553 10791
L3577 10767
" />
<path d="M3744 11314
L3791 11338
L3887 11338
L3934 11314
L3958 11267
L3958 11243
L3934 11195
L3887 11171
L3815 11171
L3768 11148
L3744 11100
L3744 11076
L3768 11029
L3815 11005
L3887 11005
L3934 11029
" />
<path d="M4363 11314
L4315 11338
L4220 11338
L4172 11314
L4149 11267
L4149 11076
L4172 11029
L4220 11005
L4315 11005
L4363 11029
L4387 11076
L4387 11124
L4149 11171
" />
<path d="M4625 11338
L4720 11338
L4768 11314
L4791 11291
L4839 11219
L4863 11124
L4863 10933
L4839 10886
L4815 10862
L4768 10838
L4672 10838
L4625 10862
L4601 10886
L4577 10933
L4577 11052
L4601 11100
L4625 11124
L4672 11148
L4768 11148
L4815 11124
L4839 11100
L4863 11052
" />
<path d="M5315 10838
L5077 10838
L5053 11076
L5077 11052
L5125 11029
L5244 11029
L5291 11052
L5315 11076
L5339 11124
L5339 11243
L5315 11291
L5291 11314
L5244 11338
L5125 11338
L5077 11314
L5053 11291
" />
<path d="M5934 11338
L5934 11005
" />
<path d="M5934 10838
L5910 10862
L5934 10886
L5958 10862
L5934 10838
L5934 10886
" />
<path d="M6149 10886
L6172 10862
L6220 10838
L6339 10838
L6387 10862
L6410 10886
L6434 10933
L6434 10981
L6410 11052
L6125 11338
L6434 11338
" />
<path d="M6863 11314
L6815 11338
L6720 11338
L6672 11314
L6649 11291
L6625 11243
L6625 11100
L6649 11052
L6672 11029
L6720 11005
L6815 11005
L6863 11029
" />
<path d="M7434 11314
L7482 11338
L7577 11338
L7625 11314
L7649 11267
L7649 11243
L7625 11195
L7577 11171
L7506 11171
L7458 11148
L7434 11100
L7434 11076
L7458 11029
L7506 11005
L7577 11005
L7625 11029
" />
<path d="M8077 11338
L8077 10838
" />
<path d="M8077 11314
L8029 11338
L7934 11338
L7887 11314
L7863 11291
L7839 11243
L7839 11100
L7863 11052
L7887 11029
L7934 11005
L8029 11005
L8077 11029
" />
<path d="M8529 11338
L8529 11076
L8506 11029
L8458 11005
L8363 11005
L8315 11029
" />
<path d="M8529 11314
L8482 11338
L8363 11338
L8315 11314
L8291 11267
L8291 11219
L8315 11171
L8363 11148
L8482 11148
L8529 11124
" />
<path d="M8720 11529
L8744 11505
L8791 11433
L8815 11386
L8839 11314
L8863 11195
L8863 11100
L8839 10981
L8815 10910
L8791 10862
L8744 10791
L8720 10767
" />
</g></g>
<g style="fill:#0F0F0F; fill-opacity:0.0; 
stroke:#0F0F0F; stroke-width:62.519685; stroke-opacity:1; 
stroke-linecap:round; stroke-linejoin:round;">
</g>
<g style="fill:#0F0F0F; fill-opacity:0.0; 
stroke:#0F0F0F; stroke-width:60.000000; stroke-opacity:1; 
stroke-linecap:round; stroke-linejoin:round;">
<text x="1500.000000" y="8362.480315"
textLength="7440.944882" font-size="666.653543" lengthAdjust="spacingAndGlyphs"
text-anchor="start" opacity="0">UART TxD (S8 CO2)</text>
<g class="stroked-text"><desc>UART TxD (S8 CO2)</desc>
<path d="M1649 7838
L1649 8243
L1672 8291
L1696 8314
L1744 8338
L1839 8338
L1887 8314
L1910 8291
L1934 8243
L1934 7838
" />
<path d="M2149 8195
L2387 8195
" />
<path d="M2101 8338
L2268 7838
L2434 8338
" />
<path d="M2887 8338
L2720 8100
" />
<path d="M2601 8338
L2601 7838
L2791 7838
L2839 7862
L2863 7886
L2887 7933
L2887 8005
L2863 8052
L2839 8076
L2791 8100
L2601 8100
" />
<path d="M3030 7838
L3315 7838
" />
<path d="M3172 8338
L3172 7838
" />
<path d="M3791 7838
L4077 7838
" />
<path d="M3934 8338
L3934 7838
" />
<path d="M4196 8338
L4458 8005
" />
<path d="M4196 8005
L4458 8338
" />
<path d="M4649 8338
L4649 7838
L4768 7838
L4839 7862
L4887 7910
L4910 7957
L4934 8052
L4934 8124
L4910 8219
L4887 8267
L4839 8314
L4768 8338
L4649 8338
" />
<path d="M5672 8529
L5649 8505
L5601 8433
L5577 8386
L5553 8314
L5530 8195
L5530 8100
L5553 7981
L5577 7910
L5601 7862
L5649 7791
L5672 7767
" />
<path d="M5839 8314
L5910 8338
L6030 8338
L6077 8314
L6101 8291
L6125 8243
L6125 8195
L6101 8148
L6077 8124
L6030 8100
L5934 8076
L5887 8052
L5863 8029
L5839 7981
L5839 7933
L5863 7886
L5887 7862
L5934 7838
L6053 7838
L6125 7862
" />
<path d="M6410 8052
L6363 8029
L6339 8005
L6315 7957
L6315 7933
L6339 7886
L6363 7862
L6410 7838
L6506 7838
L6553 7862
L6577 7886
L6601 7933
L6601 7957
L6577 8005
L6553 8029
L6506 8052
L6410 8052
L6363 8076
L6339 8100
L6315 8148
L6315 8243
L6339 8291
L6363 8314
L6410 8338
L6506 8338
L6553 8314
L6577 8291
L6601 8243
L6601 8148
L6577 8100
L6553 8076
L6506 8052
" />
<path d="M7482 8291
L7458 8314
L7387 8338
L7339 8338
L7268 8314
L7220 8267
L7196 8219
L7172 8124
L7172 8052
L7196 7957
L7220 7910
L7268 7862
L7339 7838
L7387 7838
L7458 7862
L7482 7886
" />
<path d="M7791 7838
L7887 7838
L7934 7862
L7982 7910
L8006 8005
L8006 8171
L7982 8267
L7934 8314
L7887 8338
L7791 8338
L7744 8314
L7696 8267
L7672 8171
L7672 8005
L7696 7910
L7744 7862
L7791 7838
" />
<path d="M8196 7886
L8220 7862
L8268 7838
L8387 7838
L8434 7862
L8458 7886
L8482 7933
L8482 7981
L8458 8052
L8172 8338
L8482 8338
" />
<path d="M8649 8529
L8672 8505
L8720 8433
L8744 8386
L8768 8314
L8791 8195
L8791 8100
L8768 7981
L8744 7910
L8720 7862
L8672 7791
L8649 7767
" />
</g></g>
<g style="fill:#009600; fill-opacity:0.0; 
stroke:#009600; stroke-width:60.000000; stroke-opacity:1; 
stroke-linecap:round; stroke-linejoin:round;">
<path d="M14000 13500
L8000 13500
" />
<path d="M11000 10000
L11000 9500
" />
<path d="M8000 6500
L14000 6500
" />
<path d="M1000 11500
L14000 11500
" />
<path d="M1000 8500
L14000 8500
" />
<path d="M11000 9500
L14000 9500
" />
<path d="M1000 12500
L14000 12500
" />
<path d="M1000 7500
L14000 7500
" />
</g> 
</svg>
